<?xml version="1.0" standalone="no"?>
<!DOCTYPE svg PUBLIC "-//W3C//DTD SVG 20010904//EN"
 "http://www.w3.org/TR/2001/REC-SVG-20010904/DTD/svg10.dtd">
<svg version="1.0" xmlns="http://www.w3.org/2000/svg"
 width="1350.000000pt" height="1242.000000pt" viewBox="0 0 1350.000000 1242.000000"
 preserveAspectRatio="xMidYMid meet">
<metadata>
Created by potrace 1.10, written by Peter Selinger 2001-2011
</metadata>
<g transform="translate(0.000000,1242.000000) scale(0.100000,-0.100000)"
fill="#6b4096" stroke="none">
<path d="M9952 11958 c3 -20 -2 -23 -48 -29 -28 -4 -60 -11 -72 -18 -11 -6
-31 -11 -43 -11 -21 0 -68 -13 -114 -31 -11 -4 -45 -10 -75 -14 -30 -3 -74
-15 -98 -27 -37 -17 -47 -18 -73 -8 -16 7 -31 11 -32 9 -1 -2 -7 -13 -13 -24
-9 -15 -20 -19 -44 -17 -18 2 -39 -3 -48 -11 -10 -9 -39 -18 -67 -22 -57 -7
-155 -34 -171 -47 -7 -5 -30 -6 -51 -2 -30 5 -41 2 -46 -9 -4 -10 -14 -13 -32
-9 -14 2 -40 -2 -58 -11 -59 -28 -82 -36 -117 -40 -19 -3 -65 -16 -101 -30
-37 -14 -97 -28 -133 -32 -37 -4 -69 -11 -72 -16 -3 -5 -24 -9 -47 -9 -31 0
-45 -5 -55 -20 -9 -15 -23 -20 -55 -20 -23 0 -51 -7 -61 -15 -11 -8 -35 -15
-54 -15 -18 0 -43 -5 -55 -11 -17 -10 -23 -9 -31 3 -8 13 -14 12 -43 -8 -19
-13 -55 -26 -81 -30 -26 -4 -57 -13 -68 -21 -13 -8 -32 -11 -47 -8 -14 4 -28
2 -31 -3 -3 -6 -15 -8 -27 -5 -12 4 -32 -3 -48 -15 -20 -15 -32 -17 -45 -10
-13 7 -22 5 -36 -7 -11 -10 -26 -14 -42 -10 -16 4 -31 1 -41 -9 -8 -9 -30 -16
-48 -16 -18 0 -41 -8 -51 -17 -11 -9 -29 -18 -41 -18 -56 -3 -206 -36 -213
-47 -3 -4 -20 -8 -38 -8 -19 0 -39 -7 -46 -15 -17 -20 -36 -19 -45 3 -6 15 -8
16 -18 1 -21 -28 -103 -58 -141 -52 -19 3 -36 1 -40 -6 -4 -6 -15 -11 -24 -11
-10 0 -35 -9 -57 -20 -22 -11 -57 -20 -79 -20 -22 0 -47 -7 -56 -15 -17 -15
-22 -17 -149 -34 -41 -6 -81 -17 -90 -24 -9 -8 -33 -22 -55 -31 -31 -15 -43
-16 -60 -6 -19 9 -29 8 -59 -10 -23 -13 -46 -20 -59 -17 -13 4 -26 0 -33 -9
-7 -10 -40 -19 -91 -26 -68 -9 -148 -34 -217 -70 -10 -5 -32 -6 -48 -3 -17 4
-35 2 -42 -3 -21 -17 -77 -25 -91 -13 -10 8 -18 6 -31 -9 -10 -11 -25 -20 -33
-20 -7 0 -28 -6 -45 -14 -18 -8 -50 -17 -72 -21 -22 -3 -57 -8 -78 -11 -20 -4
-40 -10 -43 -15 -3 -5 -18 -9 -34 -9 -16 0 -32 -4 -35 -10 -8 -13 -41 -13 -64
2 -27 17 -55 3 -42 -20 9 -17 4 -20 -40 -30 -28 -7 -63 -12 -78 -12 -15 0 -31
-4 -36 -9 -11 -11 -105 -32 -151 -34 -18 -1 -40 -9 -50 -19 -20 -17 -103 -29
-204 -29 -47 -1 -52 -2 -34 -12 22 -13 22 -37 -1 -37 -8 0 -21 7 -30 16 -15
15 -18 15 -36 -4 -10 -12 -38 -26 -62 -32 -23 -6 -50 -15 -59 -20 -24 -14 -28
-13 -28 6 0 9 -3 14 -7 12 -5 -2 -33 -15 -63 -29 -30 -15 -80 -29 -111 -33
-31 -4 -65 -14 -75 -21 -11 -8 -33 -15 -51 -15 -17 0 -39 -8 -48 -17 -14 -13
-21 -14 -36 -5 -25 16 -44 15 -58 -2 -6 -7 -30 -16 -52 -19 -22 -3 -48 -12
-58 -21 -11 -10 -36 -16 -67 -16 -27 0 -57 -7 -67 -15 -11 -7 -25 -11 -31 -9
-7 3 -19 -2 -26 -10 -9 -12 -23 -14 -53 -9 -33 5 -43 2 -54 -13 -11 -15 -27
-19 -81 -19 -57 0 -67 -3 -66 -17 1 -13 -10 -18 -55 -23 -31 -3 -71 -13 -89
-21 -18 -7 -57 -14 -86 -14 -39 0 -55 -4 -60 -15 -4 -11 -20 -15 -56 -15 -37
0 -52 -4 -57 -16 -4 -11 -13 -14 -30 -9 -18 4 -29 1 -38 -12 -10 -13 -24 -16
-58 -14 -34 2 -46 -2 -51 -14 -4 -12 -13 -15 -34 -10 -20 4 -36 0 -54 -14 -19
-15 -28 -17 -37 -8 -9 9 -19 7 -44 -5 -17 -9 -54 -19 -82 -22 -27 -4 -53 -10
-59 -16 -5 -5 -22 -6 -37 -3 -19 4 -40 -2 -64 -16 -20 -11 -43 -21 -51 -21 -8
0 -28 -7 -44 -15 -18 -9 -31 -11 -35 -5 -11 19 -73 10 -110 -14 -19 -14 -59
-29 -87 -36 -28 -6 -57 -15 -63 -20 -19 -16 -127 -38 -193 -39 -18 -1 -41 -10
-52 -21 -12 -12 -33 -20 -55 -20 -30 0 -35 -3 -35 -24 0 -15 -7 -27 -19 -31
-10 -3 -37 -26 -60 -51 l-41 -46 20 -25 c11 -14 20 -39 20 -55 0 -16 7 -36 15
-44 10 -11 13 -27 8 -60 -5 -37 -3 -43 9 -39 12 5 17 -6 22 -54 4 -33 11 -63
16 -66 5 -3 6 -28 3 -56 -5 -42 -3 -53 15 -69 12 -11 24 -37 27 -57 3 -21 10
-51 14 -68 5 -16 12 -60 16 -97 5 -53 11 -71 28 -83 17 -12 19 -17 9 -27 -19
-19 -14 -55 13 -98 17 -27 27 -61 31 -103 5 -46 12 -66 27 -79 17 -13 19 -20
11 -39 -9 -18 -6 -30 11 -56 14 -20 21 -41 18 -57 -3 -16 3 -40 16 -61 11 -20
21 -46 21 -58 0 -12 7 -31 15 -41 8 -11 12 -29 9 -42 -3 -13 1 -33 11 -48 13
-20 15 -37 10 -76 -6 -47 -6 -50 15 -50 19 0 22 -4 17 -29 -3 -15 0 -36 7 -47
7 -10 21 -47 31 -81 15 -51 16 -65 5 -78 -13 -16 -7 -30 12 -30 6 0 16 -20 23
-45 7 -25 14 -49 15 -55 2 -5 0 -20 -4 -33 -5 -16 2 -42 25 -92 25 -54 30 -73
21 -82 -17 -17 -15 -38 3 -38 10 0 15 -10 15 -28 0 -15 4 -32 8 -37 5 -6 14
-30 21 -55 21 -71 47 -161 61 -208 10 -32 11 -45 2 -54 -18 -18 -15 -28 7 -28
27 0 34 -15 21 -40 -6 -12 -8 -34 -5 -51 7 -31 25 -40 25 -12 0 12 3 14 10 7
8 -8 8 -19 0 -38 -8 -23 -7 -32 10 -53 11 -14 22 -41 25 -62 3 -20 10 -44 15
-53 6 -10 9 -36 8 -58 -1 -27 5 -47 18 -61 12 -13 19 -38 20 -69 2 -26 10 -63
19 -80 9 -18 14 -41 12 -52 -3 -11 3 -34 14 -52 11 -19 26 -62 33 -97 7 -35
21 -81 30 -103 9 -21 16 -59 16 -83 0 -34 5 -49 22 -63 19 -15 20 -20 10 -33
-14 -16 -6 -38 27 -79 7 -10 11 -27 8 -40 -4 -15 1 -35 13 -53 11 -17 20 -48
20 -70 1 -22 7 -51 15 -65 8 -14 14 -36 15 -50 0 -14 6 -34 14 -45 18 -27 29
-80 27 -143 0 -43 2 -53 13 -49 23 9 35 -15 33 -63 -1 -29 6 -61 21 -91 12
-25 22 -57 22 -71 0 -14 13 -64 29 -109 37 -107 61 -191 61 -212 0 -10 4 -17
9 -17 6 0 9 -18 8 -39 -1 -24 5 -47 15 -58 8 -10 18 -29 21 -43 3 -14 15 -54
27 -90 37 -111 40 -125 40 -164 0 -24 5 -39 16 -43 11 -4 15 -18 14 -47 -3
-58 -2 -62 12 -48 22 22 29 12 23 -30 -5 -33 0 -58 20 -108 31 -75 55 -158 62
-215 3 -22 10 -46 16 -54 17 -20 37 -82 37 -113 0 -15 6 -33 13 -40 8 -7 12
-21 9 -31 -3 -11 1 -23 9 -28 9 -5 14 -26 14 -58 0 -33 6 -55 17 -68 10 -11
18 -35 18 -55 0 -19 9 -57 19 -84 29 -75 63 -192 61 -211 -4 -33 0 -43 16 -43
11 0 14 -5 10 -16 -3 -9 0 -30 8 -47 32 -75 36 -90 36 -126 0 -20 7 -46 15
-57 8 -10 15 -31 15 -46 0 -15 6 -42 14 -60 8 -18 23 -60 32 -93 10 -33 26
-78 36 -100 10 -23 18 -64 18 -97 0 -46 4 -59 19 -67 10 -6 21 -25 25 -42 3
-18 14 -41 22 -51 15 -16 15 -20 0 -44 -16 -23 -16 -27 -2 -43 9 -10 16 -24
16 -32 0 -8 9 -22 20 -32 12 -10 20 -29 20 -50 0 -31 30 -134 49 -168 6 -9 13
-34 17 -55 3 -22 13 -64 22 -94 9 -30 15 -79 14 -109 -1 -47 0 -52 14 -40 21
17 36 -5 31 -44 -2 -15 0 -30 5 -33 4 -3 8 -16 8 -30 0 -13 11 -51 25 -84 14
-33 25 -77 25 -99 0 -22 5 -43 10 -46 5 -3 10 -12 10 -20 0 -8 5 -26 12 -42
20 -49 50 -166 55 -218 2 -27 10 -54 17 -60 13 -10 27 -56 52 -165 8 -35 21
-75 29 -87 8 -12 15 -33 15 -47 0 -13 7 -31 15 -40 8 -8 15 -22 15 -31 0 -9 8
-30 17 -46 15 -24 15 -32 3 -54 -10 -19 -11 -28 -2 -37 9 -9 15 -7 26 8 14 18
15 18 21 -9 9 -36 74 -71 119 -64 146 24 274 54 315 77 13 6 34 10 47 7 14 -2
25 1 28 9 3 8 21 14 43 14 21 0 47 7 57 15 11 8 34 15 51 15 17 0 35 4 40 9 6
5 40 14 77 20 36 6 96 22 132 36 37 14 84 25 106 25 21 0 41 4 44 9 3 5 18 11
33 14 111 22 208 48 216 56 6 6 24 11 41 11 30 0 86 15 118 31 10 5 35 9 57 9
22 0 44 6 51 15 7 9 27 14 49 13 24 -1 53 8 84 26 26 16 54 26 62 22 8 -3 34
2 57 10 24 9 63 19 88 24 25 4 71 15 103 24 32 9 69 16 82 16 13 0 27 5 30 10
3 6 19 10 36 10 16 0 29 5 29 10 0 6 10 10 23 10 12 0 42 9 66 21 25 11 52 19
60 18 24 -3 173 36 211 56 14 7 50 18 80 25 30 7 67 18 82 26 14 8 40 14 57
14 18 0 43 7 56 16 16 10 34 14 50 10 18 -5 27 -2 31 9 4 9 19 15 38 15 18 0
55 7 82 16 27 9 67 20 89 24 100 22 194 50 238 72 10 5 27 6 38 3 10 -4 31 0
46 8 16 8 55 23 88 32 33 10 68 21 77 26 10 5 31 9 48 9 16 0 30 4 30 9 0 13
50 25 93 22 25 -2 45 3 57 14 11 10 36 21 57 25 65 14 157 40 183 52 14 6 34
13 45 14 47 4 127 25 154 39 17 8 44 15 61 15 17 0 57 11 90 24 33 14 97 34
141 46 45 11 95 28 111 36 16 8 46 17 66 19 56 6 106 17 117 25 6 4 34 11 63
15 28 4 50 10 47 15 -6 10 19 20 50 20 20 0 38 6 110 35 11 5 29 9 40 11 56 6
101 19 114 31 7 8 20 12 28 9 22 -9 155 24 182 45 13 11 37 19 52 19 16 0 37
4 47 9 9 5 49 17 87 25 39 9 75 23 82 32 8 12 22 15 45 12 19 -3 42 1 53 8 11
7 47 16 80 20 34 4 65 13 72 21 13 16 12 16 273 81 41 10 93 27 115 38 24 11
58 18 85 17 24 -1 47 1 50 5 9 13 80 42 103 42 12 1 40 8 62 16 22 9 83 27
135 41 52 13 98 29 101 35 12 19 74 35 91 25 11 -8 23 -5 42 10 14 11 47 24
73 28 26 4 60 13 75 21 15 8 40 14 57 14 16 0 37 8 46 17 12 11 31 16 61 14
24 -1 44 2 44 7 0 5 26 15 58 22 31 7 75 22 97 33 22 11 57 24 78 29 20 4 55
12 77 17 21 4 51 16 65 25 15 10 34 14 46 11 11 -4 30 0 44 9 13 9 30 13 38
10 8 -3 20 2 27 11 7 8 20 15 30 15 10 0 23 7 30 15 7 9 20 15 29 13 9 -1 27
4 40 11 12 7 32 10 43 8 11 -3 50 8 86 24 37 17 89 33 116 36 28 4 57 14 68
25 10 10 30 23 43 28 14 5 25 16 25 25 0 9 9 15 25 15 14 0 25 5 25 10 0 6 -7
10 -15 10 -20 0 -19 10 1 25 10 7 18 32 21 68 4 49 1 65 -26 118 -17 34 -31
70 -31 80 0 10 -5 21 -10 24 -7 4 -8 24 -4 51 5 35 3 45 -10 50 -9 4 -16 18
-16 34 0 16 -4 31 -9 35 -6 3 -13 27 -17 53 -4 25 -18 66 -30 89 -13 23 -24
55 -24 71 0 15 -7 37 -15 48 -8 10 -15 34 -15 52 0 19 -9 45 -20 59 -11 14
-20 37 -20 51 0 25 -9 58 -36 132 -6 20 -15 57 -19 83 -4 25 -13 52 -21 58 -8
7 -14 31 -14 60 0 46 -13 72 -23 47 -3 -7 -6 -1 -6 13 -1 15 -8 43 -16 62 -8
20 -15 49 -15 64 0 15 -9 42 -20 58 -11 17 -20 42 -20 58 0 15 -3 27 -8 27 -9
0 -32 73 -32 104 0 13 -8 39 -17 58 -9 18 -21 42 -26 53 -5 10 -18 52 -28 92
-11 40 -29 108 -41 151 -12 42 -21 96 -21 120 0 35 -2 40 -13 31 -20 -17 -29
-3 -17 25 9 19 6 35 -22 92 -33 68 -65 169 -91 287 -7 32 -18 64 -24 72 -6 8
-13 33 -15 57 -1 23 -8 44 -13 46 -14 4 -38 77 -61 191 -11 52 -24 98 -30 104
-5 5 -7 22 -5 37 4 17 0 32 -10 42 -9 9 -17 36 -19 60 -4 41 -19 82 -52 138
-8 14 -15 46 -15 71 0 32 -5 49 -15 53 -8 3 -15 13 -15 23 0 10 -6 30 -14 45
-8 14 -17 49 -21 77 -4 28 -11 51 -16 51 -5 0 -9 14 -9 30 0 17 -4 38 -9 48
-13 24 -41 121 -41 141 0 9 -6 25 -14 36 -7 11 -16 36 -19 55 -11 57 -24 112
-42 170 -22 76 -35 130 -39 163 -1 15 -10 33 -19 40 -9 6 -21 32 -26 57 -8 39
-19 79 -61 225 -5 17 -12 57 -16 90 -3 33 -12 67 -19 75 -7 8 -16 33 -20 55
-7 42 -27 101 -51 146 -7 14 -18 50 -23 80 -19 105 -31 153 -41 163 -6 6 -10
31 -10 57 0 26 -4 51 -10 54 -5 3 -10 21 -10 38 0 18 -7 41 -15 51 -8 11 -15
27 -15 36 0 9 -9 34 -20 55 -12 22 -23 60 -27 85 -3 25 -11 54 -17 65 -6 11
-11 29 -12 40 -6 55 -18 111 -26 121 -4 6 -6 18 -2 27 3 8 -2 27 -11 41 -10
16 -14 33 -10 47 4 12 3 24 -2 28 -21 15 -53 86 -52 114 1 18 -7 52 -18 77
-20 44 -33 96 -38 153 -2 15 -8 34 -16 43 -7 8 -16 34 -20 57 -8 46 -17 80
-49 177 -11 36 -28 90 -37 120 -8 30 -19 63 -24 72 -5 10 -6 24 -3 32 3 8 1
17 -5 21 -6 3 -11 19 -11 36 0 16 -5 29 -11 29 -6 0 -9 10 -8 23 1 12 -1 29
-4 37 -26 62 -37 107 -31 137 5 24 2 38 -8 46 -17 14 -43 94 -59 182 -6 33
-17 67 -24 75 -11 13 -24 91 -29 178 -1 15 -6 34 -11 42 -23 36 -35 64 -35 84
0 12 -6 28 -12 34 -10 10 -10 17 0 33 9 15 10 29 3 52 -37 118 -61 204 -61
218 0 9 -7 22 -15 29 -9 7 -14 19 -11 27 3 8 -1 30 -9 50 -8 19 -15 48 -15 63
0 15 -9 35 -19 44 -11 10 -17 25 -14 37 3 11 -1 27 -10 37 -8 9 -18 44 -22 77
-10 81 -30 170 -51 225 -10 25 -18 68 -18 95 -1 41 -4 50 -18 49 -14 -1 -18 6
-18 30 0 18 -4 36 -8 42 -5 5 -15 29 -22 54 -17 59 -57 118 -92 136 -15 8 -28
21 -28 30 0 11 -6 13 -20 9 -27 -9 -60 3 -60 21 0 8 -7 14 -16 14 -10 0 -14
-7 -12 -22z m118 -130 c6 -24 15 -54 20 -68 5 -14 11 -46 15 -72 3 -26 10 -50
16 -53 5 -4 9 -18 9 -33 1 -15 7 -38 15 -52 8 -14 14 -35 15 -46 0 -12 6 -44
14 -70 23 -79 38 -145 47 -204 5 -30 13 -64 19 -75 5 -11 11 -36 13 -55 2 -19
14 -71 26 -115 28 -102 50 -189 60 -240 4 -22 13 -50 19 -62 7 -12 12 -36 12
-53 0 -17 7 -47 15 -67 8 -19 15 -46 15 -60 0 -13 6 -36 14 -51 7 -15 17 -49
21 -77 4 -27 10 -54 15 -60 4 -5 10 -23 13 -40 7 -37 36 -144 44 -165 4 -8 13
-40 20 -70 26 -107 31 -125 41 -155 6 -16 18 -57 27 -90 9 -33 21 -73 26 -90
15 -43 39 -133 48 -180 4 -22 13 -51 19 -65 6 -14 18 -52 27 -85 25 -89 41
-144 58 -200 8 -27 18 -69 22 -92 4 -24 11 -45 16 -49 5 -3 9 -18 9 -34 0 -16
6 -44 14 -62 7 -18 21 -60 30 -93 10 -33 22 -73 27 -90 14 -39 38 -130 49
-180 8 -38 28 -113 65 -240 10 -33 21 -76 25 -96 3 -19 11 -42 16 -50 8 -13
19 -52 44 -169 6 -24 15 -49 20 -54 6 -6 10 -21 10 -36 1 -38 31 -148 90 -327
16 -50 30 -101 30 -113 0 -12 6 -36 14 -53 8 -18 17 -45 19 -62 8 -46 28 -116
42 -150 6 -16 20 -57 30 -90 9 -33 23 -76 30 -95 7 -19 15 -52 19 -74 4 -21
11 -46 16 -55 13 -26 40 -126 40 -149 0 -12 6 -36 14 -54 21 -52 46 -134 46
-153 0 -9 6 -31 14 -48 12 -31 27 -80 46 -157 4 -19 13 -48 19 -65 21 -60 70
-221 77 -255 3 -19 10 -41 14 -50 14 -29 40 -118 40 -136 0 -11 7 -32 15 -48
8 -15 15 -35 15 -44 0 -19 28 -116 45 -157 7 -16 20 -57 30 -90 9 -33 23 -78
31 -100 8 -23 14 -50 14 -60 0 -11 7 -33 15 -49 8 -15 15 -38 15 -50 0 -11 7
-34 15 -50 8 -15 15 -35 15 -43 0 -8 6 -29 13 -46 18 -42 43 -123 52 -164 4
-18 11 -35 16 -38 5 -4 9 -16 9 -29 0 -12 6 -42 14 -67 7 -24 21 -71 31 -104
9 -33 28 -91 42 -130 14 -38 29 -90 35 -115 6 -25 14 -49 19 -54 5 -6 9 -18 9
-28 0 -17 43 -159 75 -248 31 -88 37 -108 46 -145 5 -22 13 -49 18 -60 5 -11
19 -54 31 -95 35 -123 71 -243 85 -280 32 -92 67 -197 72 -220 18 -91 73 -250
116 -339 18 -37 23 -59 17 -70 -4 -9 -44 -26 -87 -39 -77 -23 -89 -27 -148
-52 -16 -7 -46 -16 -65 -21 -19 -4 -66 -18 -105 -32 -70 -24 -87 -29 -285 -88
-58 -17 -121 -37 -140 -44 -19 -8 -66 -24 -105 -35 -38 -12 -78 -26 -87 -31
-10 -5 -26 -9 -35 -9 -10 0 -35 -6 -58 -14 -22 -8 -67 -22 -100 -31 -33 -10
-78 -23 -100 -30 -22 -7 -69 -20 -105 -30 -36 -9 -83 -23 -105 -30 -81 -27
-286 -88 -402 -120 -95 -27 -167 -47 -208 -60 -70 -22 -223 -65 -315 -90 -78
-21 -154 -43 -195 -57 -16 -5 -46 -13 -65 -18 -19 -4 -46 -12 -60 -18 -14 -5
-52 -17 -85 -25 -79 -20 -279 -76 -330 -91 -22 -7 -85 -27 -140 -44 -112 -35
-178 -53 -280 -77 -38 -9 -92 -22 -120 -30 -27 -8 -77 -21 -110 -30 -33 -9
-76 -23 -95 -30 -19 -7 -62 -20 -95 -29 -33 -10 -73 -22 -90 -28 -16 -5 -50
-14 -75 -19 -25 -5 -56 -13 -70 -18 -14 -5 -54 -17 -90 -26 -107 -28 -247 -68
-395 -111 -27 -8 -66 -19 -85 -23 -19 -4 -51 -13 -70 -19 -19 -6 -69 -21 -110
-32 -41 -12 -84 -26 -95 -30 -11 -5 -33 -11 -50 -13 -16 -3 -70 -17 -120 -32
-101 -30 -159 -46 -255 -70 -36 -10 -83 -23 -105 -31 -23 -8 -48 -14 -57 -14
-9 0 -59 -13 -110 -29 -51 -16 -122 -36 -158 -46 -147 -39 -240 -66 -359 -105
-52 -16 -101 -30 -109 -30 -9 0 -38 -6 -66 -14 -28 -8 -80 -22 -116 -31 -73
-18 -134 -35 -230 -64 -36 -10 -83 -24 -105 -29 -103 -27 -164 -43 -206 -57
-26 -8 -55 -15 -65 -15 -11 0 -55 -12 -99 -26 -44 -13 -98 -29 -120 -33 -22
-5 -103 -25 -180 -46 -77 -20 -180 -47 -230 -60 -106 -28 -139 -37 -265 -76
-52 -16 -133 -38 -180 -50 -96 -23 -104 -20 -116 50 -3 20 -11 54 -18 76 -27
85 -44 142 -61 205 -32 125 -46 175 -59 210 -14 37 -36 109 -60 200 -8 30 -27
98 -42 150 -14 52 -30 111 -34 130 -4 19 -13 49 -19 65 -18 51 -68 226 -86
305 -16 72 -46 172 -64 215 -22 55 -52 150 -75 245 -18 71 -32 118 -45 155
-12 34 -60 198 -86 295 -10 36 -23 83 -30 105 -24 78 -43 141 -61 205 -9 36
-21 70 -25 75 -8 11 -36 107 -49 170 -17 77 -47 187 -104 375 -7 25 -21 72
-30 105 -10 33 -22 74 -28 90 -5 17 -14 48 -18 71 -5 22 -13 51 -19 65 -5 13
-17 51 -26 84 -9 33 -23 76 -30 95 -14 40 -44 145 -91 320 -9 36 -37 126 -61
200 -51 161 -70 222 -119 400 -23 82 -39 139 -57 200 -9 30 -24 82 -32 115 -9
33 -23 83 -31 111 -8 28 -14 60 -14 72 0 12 -6 36 -14 54 -13 32 -28 84 -45
158 -5 19 -13 46 -18 60 -14 33 -38 119 -59 205 -16 71 -20 85 -72 255 -43
138 -59 196 -78 280 -9 41 -30 117 -45 168 -16 51 -29 100 -29 109 0 8 -6 29
-14 46 -8 18 -17 43 -19 57 -12 55 -30 117 -43 148 -8 18 -14 43 -14 55 0 12
-7 45 -16 72 -30 93 -37 120 -45 155 -4 19 -17 67 -29 105 -12 39 -25 90 -30
115 -4 25 -13 59 -18 75 -6 17 -18 59 -27 95 -34 139 -74 278 -91 318 -8 18
-14 46 -14 62 0 16 -5 41 -11 57 -6 15 -15 44 -19 63 -14 66 -41 165 -50 185
-5 11 -11 31 -13 45 -3 14 -10 39 -15 55 -15 45 -39 131 -57 210 -8 39 -22 93
-30 120 -7 28 -21 86 -30 130 -10 44 -22 91 -27 104 -10 26 -34 128 -48 203
-5 26 -13 56 -19 67 -6 11 -11 35 -11 53 0 19 -11 49 -25 70 -14 20 -25 40
-25 43 0 10 91 45 118 45 15 1 38 7 52 15 14 8 36 14 49 15 23 0 103 20 166
42 17 5 50 14 74 19 25 5 59 13 75 18 17 6 60 17 96 26 36 9 80 21 99 27 46
14 145 37 201 47 25 4 54 12 65 18 11 5 42 13 70 17 27 3 63 10 80 15 16 5 57
17 90 27 33 9 78 22 100 29 22 7 76 20 120 30 44 10 94 22 110 28 17 5 50 13
75 17 75 13 190 40 208 49 23 12 97 31 152 40 25 4 52 11 60 16 8 5 32 12 55
16 59 9 135 30 172 45 17 8 46 14 65 14 18 0 46 7 62 15 15 8 38 15 49 15 20
0 86 17 178 46 26 8 53 14 62 14 8 0 39 7 68 16 74 21 142 40 219 59 36 9 79
21 95 27 17 5 48 13 70 18 22 4 58 12 80 18 97 26 163 42 178 42 8 0 28 5 44
12 26 10 81 25 173 47 19 4 44 12 55 18 11 6 56 18 100 27 44 10 94 22 110 28
17 6 50 13 75 17 25 4 61 12 80 19 19 6 64 18 100 27 36 9 85 22 110 29 25 8
79 21 120 31 41 9 98 23 125 30 28 8 84 21 125 31 41 9 89 22 105 29 17 7 50
18 75 24 25 6 68 18 95 27 28 8 75 19 105 25 30 5 64 13 75 18 23 10 99 29
164 42 24 5 49 13 55 18 6 4 29 11 51 14 22 4 72 16 110 27 39 12 88 25 110
29 62 13 136 32 178 47 20 8 46 14 56 14 10 0 41 6 67 14 27 8 78 22 114 31
36 9 88 22 115 30 28 7 79 21 115 30 36 9 88 22 115 30 50 13 120 30 185 46
51 12 118 29 172 45 26 8 60 14 77 14 16 0 32 4 35 9 4 5 25 12 49 16 23 3 65
12 92 20 28 7 79 21 115 30 36 9 80 23 98 31 18 8 44 14 58 14 14 0 33 4 43
10 18 9 112 32 204 50 26 5 62 13 80 19 17 5 61 17 97 26 80 21 160 42 225 60
115 32 142 39 180 46 22 4 82 19 133 33 51 14 101 26 110 26 9 0 28 7 42 14
14 8 37 14 52 15 24 1 29 -4 38 -41z"/>
<path d="M7872 10610 c-11 -11 -24 -37 -28 -57 -9 -50 4 -830 16 -908 13 -92
29 -158 40 -169 6 -6 10 -20 10 -32 0 -25 51 -84 72 -84 7 0 28 9 46 20 36 22
41 51 18 103 -15 33 -19 52 -38 181 -10 71 -9 83 8 115 28 55 92 136 169 215
95 96 328 295 384 327 66 38 85 62 71 88 -8 17 -20 21 -57 21 -46 0 -65 -11
-147 -88 -16 -15 -37 -31 -46 -37 -22 -13 -106 -85 -231 -199 -74 -68 -103
-101 -118 -138 -15 -36 -25 -49 -38 -46 -15 3 -17 18 -18 128 -1 69 -5 177 -9
241 -7 96 -6 123 8 165 13 41 14 56 5 85 -15 44 -25 55 -62 74 -36 18 -29 19
-55 -5z"/>
<path d="M5455 10146 c-38 -13 -81 -22 -270 -61 -44 -9 -100 -22 -125 -30 -25
-7 -65 -18 -90 -24 -25 -6 -76 -20 -115 -31 -38 -11 -78 -20 -88 -20 -11 0
-33 -6 -50 -14 -18 -7 -59 -21 -92 -31 -33 -10 -78 -24 -100 -31 -23 -8 -50
-14 -62 -14 -12 0 -37 -6 -55 -14 -18 -8 -80 -28 -138 -45 -58 -18 -118 -37
-135 -42 -16 -6 -48 -15 -70 -20 -22 -4 -62 -14 -90 -22 -49 -14 -50 -15 -53
-58 -3 -35 1 -46 20 -61 40 -31 105 -22 271 38 20 8 46 14 56 14 11 0 32 7 48
14 32 17 125 46 146 46 8 0 28 7 43 15 16 8 37 15 46 15 10 0 57 18 104 41 48
22 93 38 102 34 12 -4 13 -23 8 -118 -4 -61 -12 -152 -17 -202 -5 -49 -14
-128 -19 -175 -4 -47 -14 -125 -20 -175 -6 -49 -12 -180 -13 -290 -2 -186 -1
-202 18 -227 34 -45 60 -54 100 -35 l35 17 1 257 c0 142 5 294 10 338 6 44 14
125 19 180 5 55 13 123 19 150 5 28 10 105 10 173 1 89 4 124 14 126 6 2 48
12 92 24 44 11 105 27 135 36 30 10 73 21 95 25 23 4 47 11 54 15 36 23 220
57 322 59 69 2 99 16 99 47 0 10 -7 23 -15 30 -8 7 -15 18 -15 26 0 7 -9 18
-19 24 -27 14 -167 11 -216 -4z"/>
<path d="M7200 10153 c-188 -69 -300 -181 -284 -281 12 -73 104 -132 208 -132
39 0 53 -5 77 -29 16 -16 29 -36 29 -44 0 -8 -19 -39 -41 -70 -54 -72 -180
-150 -265 -164 -19 -3 -37 -10 -40 -14 -3 -5 -27 -9 -53 -9 -41 0 -51 4 -82
38 -64 66 -125 186 -169 327 -6 22 -21 60 -32 85 -62 143 -88 180 -126 180
-15 -1 -36 -8 -47 -18 -41 -34 -265 -353 -265 -377 0 -4 -13 -24 -29 -44 -16
-20 -43 -67 -61 -106 -17 -38 -38 -83 -46 -98 -8 -16 -14 -35 -14 -42 0 -13
-7 -30 -48 -110 -27 -52 -54 -56 -89 -16 -15 17 -31 31 -36 31 -22 0 -97 71
-125 118 -18 30 -32 58 -32 63 0 26 -85 185 -113 210 -59 54 -75 44 -179 -116
-65 -102 -83 -135 -113 -215 -9 -25 -22 -54 -27 -64 -6 -11 -14 -31 -18 -45
-5 -14 -18 -51 -29 -81 -27 -70 -26 -95 1 -114 26 -19 74 -21 84 -4 7 11 17
51 34 138 18 96 144 337 171 328 12 -4 39 -73 39 -101 0 -51 86 -159 148 -188
26 -12 56 -26 67 -32 25 -13 161 -47 189 -47 37 0 119 37 143 64 15 18 23 40
23 66 0 56 27 169 51 213 12 21 35 53 53 71 17 18 41 51 54 72 13 22 48 66 78
99 30 33 54 63 54 67 0 19 64 78 85 78 56 0 44 -48 -35 -139 -78 -90 -134
-194 -125 -230 10 -40 34 -61 71 -61 26 0 36 7 53 34 12 18 21 42 21 52 0 11
7 28 15 38 8 11 15 27 15 35 0 24 45 75 58 67 7 -4 12 -22 12 -40 0 -38 23
-110 42 -131 7 -8 36 -41 63 -73 66 -77 109 -102 177 -102 29 0 71 5 93 11 22
6 56 14 75 18 67 16 152 62 248 134 46 35 113 144 141 229 14 43 2 92 -36 143
-36 49 -122 85 -204 85 -26 0 -51 5 -55 11 -16 26 83 88 141 89 33 0 117 36
127 54 12 21 -14 81 -38 90 -19 7 -63 7 -84 -1z"/>
<path d="M8210 9918 c-24 -39 -23 -33 -6 -82 16 -46 25 -51 92 -59 73 -8 122
-38 200 -121 71 -76 78 -85 116 -148 31 -51 57 -50 102 6 52 63 46 109 -25
177 -15 15 -42 51 -60 80 -51 85 -56 89 -115 89 -45 0 -61 6 -121 45 -57 37
-76 45 -116 45 -43 0 -49 -3 -67 -32z"/>
<path d="M9120 9095 c-30 -8 -91 -19 -135 -25 -131 -18 -186 -28 -214 -38 -25
-9 -80 -21 -256 -57 -44 -9 -102 -23 -130 -30 -27 -7 -86 -21 -130 -30 -44 -9
-100 -22 -125 -30 -25 -7 -81 -21 -125 -30 -44 -9 -102 -22 -130 -30 -27 -7
-68 -16 -90 -20 -41 -6 -62 -12 -150 -38 -27 -9 -86 -23 -130 -32 -44 -9 -97
-21 -117 -26 -20 -5 -67 -14 -105 -19 -37 -5 -86 -14 -108 -19 -50 -12 -145
-31 -205 -40 -25 -4 -61 -12 -80 -19 -33 -10 -125 -28 -195 -38 -16 -3 -64
-11 -105 -19 -88 -17 -193 -34 -270 -45 -98 -13 -204 -32 -255 -45 -80 -21
-155 -35 -225 -41 -36 -3 -87 -12 -115 -19 -27 -7 -95 -18 -150 -25 -229 -27
-253 -31 -460 -69 -138 -26 -180 -32 -272 -41 -55 -5 -120 -14 -144 -19 -50
-11 -197 -29 -344 -41 -55 -4 -113 -13 -130 -18 -16 -6 -75 -13 -130 -16 -86
-5 -102 -9 -117 -27 -28 -33 -22 -65 15 -93 28 -22 45 -26 100 -26 36 0 78 5
94 11 25 10 145 27 353 48 146 16 345 41 365 47 11 4 49 10 85 14 158 20 238
32 275 41 49 13 119 24 245 39 52 6 118 18 146 26 28 8 71 14 95 14 24 0 71 7
104 15 33 8 77 14 98 15 21 0 47 4 57 10 10 5 65 17 122 26 57 8 126 19 153
24 28 5 96 15 152 24 56 8 108 18 115 22 7 5 38 12 68 16 116 15 197 29 245
43 28 7 95 21 150 30 55 9 123 22 150 30 28 7 82 19 120 25 106 18 152 27 250
50 113 27 156 36 225 51 30 6 70 17 88 25 18 8 45 14 59 14 14 0 49 6 77 14
81 22 136 36 206 51 36 8 83 18 105 24 22 5 73 17 114 26 41 9 79 19 85 23 6
3 31 10 56 14 98 16 206 40 222 49 10 5 36 9 57 9 22 0 42 4 45 8 3 5 44 15
91 22 47 7 88 17 91 22 3 4 57 8 121 8 141 0 173 13 173 70 0 58 -31 80 -111
79 -35 0 -89 -7 -119 -14z"/>
<path d="M9925 6807 c-4 -10 -5 -21 -1 -24 10 -10 18 4 13 24 -4 17 -4 17 -12
0z"/>
<path d="M10391 5061 c-16 -10 -6 -31 15 -31 8 0 14 9 14 20 0 22 -7 25 -29
11z"/>
<path d="M2500 10525 c0 -8 7 -15 15 -15 8 0 15 7 15 15 0 8 -7 15 -15 15 -8
0 -15 -7 -15 -15z"/>
<path d="M1350 1245 c0 -8 4 -15 9 -15 5 0 11 7 15 15 3 9 0 15 -9 15 -8 0
-15 -7 -15 -15z"/>
</g>
</svg>
